<mxfile host="app.diagrams.net" agent="Mozilla/5.0 (Windows NT 10.0; Win64; x64) AppleWebKit/537.36 (KHTML, like Gecko) Chrome/131.0.0.0 Safari/537.36" version="24.8.8">
  <diagram id="O19IeBYHLnavWad0S3-A" name="Page-1">
    <mxGraphModel dx="2616" dy="1869" grid="1" gridSize="10" guides="1" tooltips="1" connect="1" arrows="1" fold="1" page="1" pageScale="1" pageWidth="800" pageHeight="800" math="0" shadow="0">
      <root>
        <mxCell id="0" />
        <mxCell id="1" parent="0" />
        <mxCell id="MBT1y_pQEVm0Yut7TZI4-49" value="" style="endArrow=classic;html=1;rounded=0;" edge="1" parent="1" source="MBT1y_pQEVm0Yut7TZI4-44" target="MBT1y_pQEVm0Yut7TZI4-22">
          <mxGeometry width="50" height="50" relative="1" as="geometry">
            <mxPoint x="2070" y="480" as="sourcePoint" />
            <mxPoint x="1958" y="290" as="targetPoint" />
          </mxGeometry>
        </mxCell>
        <mxCell id="RfX00L0ss7I2LWjoT78T-9" value="Event" style="rounded=0;whiteSpace=wrap;html=1;" parent="1" vertex="1">
          <mxGeometry x="1060" y="180" width="120" height="60" as="geometry" />
        </mxCell>
        <mxCell id="RfX00L0ss7I2LWjoT78T-13" style="rounded=0;orthogonalLoop=1;jettySize=auto;html=1;" parent="1" source="RfX00L0ss7I2LWjoT78T-10" target="RfX00L0ss7I2LWjoT78T-9" edge="1">
          <mxGeometry relative="1" as="geometry" />
        </mxCell>
        <mxCell id="RfX00L0ss7I2LWjoT78T-10" value="Connect Event" style="rounded=0;whiteSpace=wrap;html=1;" parent="1" vertex="1">
          <mxGeometry x="910" y="290" width="120" height="60" as="geometry" />
        </mxCell>
        <mxCell id="RfX00L0ss7I2LWjoT78T-15" style="rounded=0;orthogonalLoop=1;jettySize=auto;html=1;" parent="1" source="RfX00L0ss7I2LWjoT78T-11" target="RfX00L0ss7I2LWjoT78T-9" edge="1">
          <mxGeometry relative="1" as="geometry" />
        </mxCell>
        <mxCell id="RfX00L0ss7I2LWjoT78T-11" value="Disconnect Event" style="rounded=0;whiteSpace=wrap;html=1;" parent="1" vertex="1">
          <mxGeometry x="1210" y="290" width="120" height="60" as="geometry" />
        </mxCell>
        <mxCell id="RfX00L0ss7I2LWjoT78T-14" style="rounded=0;orthogonalLoop=1;jettySize=auto;html=1;" parent="1" source="RfX00L0ss7I2LWjoT78T-12" target="RfX00L0ss7I2LWjoT78T-9" edge="1">
          <mxGeometry relative="1" as="geometry" />
        </mxCell>
        <mxCell id="RfX00L0ss7I2LWjoT78T-12" value="Session Event" style="rounded=0;whiteSpace=wrap;html=1;" parent="1" vertex="1">
          <mxGeometry x="1060" y="290" width="120" height="60" as="geometry" />
        </mxCell>
        <mxCell id="RfX00L0ss7I2LWjoT78T-17" value="Update Settings Event" style="rounded=0;whiteSpace=wrap;html=1;" parent="1" vertex="1">
          <mxGeometry x="910" y="400" width="120" height="60" as="geometry" />
        </mxCell>
        <mxCell id="RfX00L0ss7I2LWjoT78T-18" value="Game Start Event" style="rounded=0;whiteSpace=wrap;html=1;" parent="1" vertex="1">
          <mxGeometry x="985" y="510" width="120" height="60" as="geometry" />
        </mxCell>
        <mxCell id="RfX00L0ss7I2LWjoT78T-19" value="Chat Message&lt;div&gt;Event&lt;/div&gt;" style="rounded=0;whiteSpace=wrap;html=1;" parent="1" vertex="1">
          <mxGeometry x="1210" y="400" width="120" height="60" as="geometry" />
        </mxCell>
        <mxCell id="RfX00L0ss7I2LWjoT78T-20" value="Game Event" style="rounded=0;whiteSpace=wrap;html=1;" parent="1" vertex="1">
          <mxGeometry x="1060" y="400" width="120" height="60" as="geometry" />
        </mxCell>
        <mxCell id="RfX00L0ss7I2LWjoT78T-21" value="" style="endArrow=classic;html=1;rounded=0;" parent="1" source="RfX00L0ss7I2LWjoT78T-18" target="RfX00L0ss7I2LWjoT78T-20" edge="1">
          <mxGeometry width="50" height="50" relative="1" as="geometry">
            <mxPoint x="1540" y="440" as="sourcePoint" />
            <mxPoint x="1590" y="390" as="targetPoint" />
          </mxGeometry>
        </mxCell>
        <mxCell id="RfX00L0ss7I2LWjoT78T-24" value="" style="endArrow=classic;html=1;rounded=0;" parent="1" source="RfX00L0ss7I2LWjoT78T-19" target="RfX00L0ss7I2LWjoT78T-12" edge="1">
          <mxGeometry width="50" height="50" relative="1" as="geometry">
            <mxPoint x="1350" y="372" as="sourcePoint" />
            <mxPoint x="1455" y="320" as="targetPoint" />
          </mxGeometry>
        </mxCell>
        <mxCell id="RfX00L0ss7I2LWjoT78T-26" style="rounded=0;orthogonalLoop=1;jettySize=auto;html=1;" parent="1" source="RfX00L0ss7I2LWjoT78T-25" target="RfX00L0ss7I2LWjoT78T-20" edge="1">
          <mxGeometry relative="1" as="geometry" />
        </mxCell>
        <mxCell id="RfX00L0ss7I2LWjoT78T-25" value="Click Event" style="rounded=0;whiteSpace=wrap;html=1;" parent="1" vertex="1">
          <mxGeometry x="1135" y="510" width="120" height="60" as="geometry" />
        </mxCell>
        <mxCell id="RfX00L0ss7I2LWjoT78T-27" value="Inbound Events" style="rounded=0;whiteSpace=wrap;html=1;" parent="1" vertex="1">
          <mxGeometry x="840" y="80" width="120" height="60" as="geometry" />
        </mxCell>
        <mxCell id="RfX00L0ss7I2LWjoT78T-28" value="" style="endArrow=none;html=1;rounded=0;" parent="1" edge="1">
          <mxGeometry width="50" height="50" relative="1" as="geometry">
            <mxPoint x="1420" y="755" as="sourcePoint" />
            <mxPoint x="1420" y="40" as="targetPoint" />
          </mxGeometry>
        </mxCell>
        <mxCell id="MBT1y_pQEVm0Yut7TZI4-1" value="Event" style="rounded=0;whiteSpace=wrap;html=1;" vertex="1" parent="1">
          <mxGeometry x="1870" y="110" width="120" height="60" as="geometry" />
        </mxCell>
        <mxCell id="MBT1y_pQEVm0Yut7TZI4-3" value="Server Error Event" style="rounded=0;whiteSpace=wrap;html=1;" vertex="1" parent="1">
          <mxGeometry x="1500" y="330" width="120" height="60" as="geometry" />
        </mxCell>
        <mxCell id="MBT1y_pQEVm0Yut7TZI4-5" value="Connect Event" style="rounded=0;whiteSpace=wrap;html=1;" vertex="1" parent="1">
          <mxGeometry x="1718" y="220" width="120" height="60" as="geometry" />
        </mxCell>
        <mxCell id="MBT1y_pQEVm0Yut7TZI4-7" value="Invalid Message Event" style="rounded=0;whiteSpace=wrap;html=1;" vertex="1" parent="1">
          <mxGeometry x="1645" y="330" width="120" height="60" as="geometry" />
        </mxCell>
        <mxCell id="MBT1y_pQEVm0Yut7TZI4-18" value="Outbound Events" style="rounded=0;whiteSpace=wrap;html=1;" vertex="1" parent="1">
          <mxGeometry x="1500" y="40" width="120" height="60" as="geometry" />
        </mxCell>
        <mxCell id="MBT1y_pQEVm0Yut7TZI4-19" value="Disconnect Success Event" style="rounded=0;whiteSpace=wrap;html=1;" vertex="1" parent="1">
          <mxGeometry x="2020" y="220" width="120" height="60" as="geometry" />
        </mxCell>
        <mxCell id="MBT1y_pQEVm0Yut7TZI4-20" value="No Session Event" style="rounded=0;whiteSpace=wrap;html=1;" vertex="1" parent="1">
          <mxGeometry x="2090" y="330" width="120" height="60" as="geometry" />
        </mxCell>
        <mxCell id="MBT1y_pQEVm0Yut7TZI4-21" value="Unknown Session Event" style="rounded=0;whiteSpace=wrap;html=1;" vertex="1" parent="1">
          <mxGeometry x="2240" y="330" width="120" height="60" as="geometry" />
        </mxCell>
        <mxCell id="MBT1y_pQEVm0Yut7TZI4-22" value="Session Event" style="rounded=0;whiteSpace=wrap;html=1;" vertex="1" parent="1">
          <mxGeometry x="1870" y="220" width="120" height="60" as="geometry" />
        </mxCell>
        <mxCell id="MBT1y_pQEVm0Yut7TZI4-23" value="Session Error Event" style="rounded=0;whiteSpace=wrap;html=1;" vertex="1" parent="1">
          <mxGeometry x="2165" y="220" width="120" height="60" as="geometry" />
        </mxCell>
        <mxCell id="MBT1y_pQEVm0Yut7TZI4-26" value="Error Event" style="rounded=0;whiteSpace=wrap;html=1;" vertex="1" parent="1">
          <mxGeometry x="1570" y="220" width="120" height="60" as="geometry" />
        </mxCell>
        <mxCell id="MBT1y_pQEVm0Yut7TZI4-27" value="" style="endArrow=classic;html=1;rounded=0;" edge="1" parent="1" source="MBT1y_pQEVm0Yut7TZI4-26" target="MBT1y_pQEVm0Yut7TZI4-1">
          <mxGeometry width="50" height="50" relative="1" as="geometry">
            <mxPoint x="2030" y="260" as="sourcePoint" />
            <mxPoint x="2080" y="210" as="targetPoint" />
          </mxGeometry>
        </mxCell>
        <mxCell id="MBT1y_pQEVm0Yut7TZI4-28" value="" style="endArrow=classic;html=1;rounded=0;" edge="1" parent="1" source="MBT1y_pQEVm0Yut7TZI4-5" target="MBT1y_pQEVm0Yut7TZI4-1">
          <mxGeometry width="50" height="50" relative="1" as="geometry">
            <mxPoint x="1700" y="234" as="sourcePoint" />
            <mxPoint x="1880" y="156" as="targetPoint" />
          </mxGeometry>
        </mxCell>
        <mxCell id="MBT1y_pQEVm0Yut7TZI4-32" value="" style="endArrow=classic;html=1;rounded=0;" edge="1" parent="1" source="MBT1y_pQEVm0Yut7TZI4-3" target="MBT1y_pQEVm0Yut7TZI4-26">
          <mxGeometry width="50" height="50" relative="1" as="geometry">
            <mxPoint x="2180" y="234" as="sourcePoint" />
            <mxPoint x="2000" y="156" as="targetPoint" />
          </mxGeometry>
        </mxCell>
        <mxCell id="MBT1y_pQEVm0Yut7TZI4-33" value="" style="endArrow=classic;html=1;rounded=0;" edge="1" parent="1" source="MBT1y_pQEVm0Yut7TZI4-7" target="MBT1y_pQEVm0Yut7TZI4-26">
          <mxGeometry width="50" height="50" relative="1" as="geometry">
            <mxPoint x="1585" y="340" as="sourcePoint" />
            <mxPoint x="1620" y="290" as="targetPoint" />
          </mxGeometry>
        </mxCell>
        <mxCell id="MBT1y_pQEVm0Yut7TZI4-34" value="" style="endArrow=classic;html=1;rounded=0;" edge="1" parent="1" source="MBT1y_pQEVm0Yut7TZI4-20" target="MBT1y_pQEVm0Yut7TZI4-23">
          <mxGeometry width="50" height="50" relative="1" as="geometry">
            <mxPoint x="1695" y="340" as="sourcePoint" />
            <mxPoint x="1660" y="290" as="targetPoint" />
          </mxGeometry>
        </mxCell>
        <mxCell id="MBT1y_pQEVm0Yut7TZI4-35" value="" style="endArrow=classic;html=1;rounded=0;" edge="1" parent="1" source="MBT1y_pQEVm0Yut7TZI4-21" target="MBT1y_pQEVm0Yut7TZI4-23">
          <mxGeometry width="50" height="50" relative="1" as="geometry">
            <mxPoint x="2035" y="340" as="sourcePoint" />
            <mxPoint x="2070" y="290" as="targetPoint" />
          </mxGeometry>
        </mxCell>
        <mxCell id="MBT1y_pQEVm0Yut7TZI4-37" value="" style="endArrow=classic;html=1;rounded=0;" edge="1" parent="1" source="MBT1y_pQEVm0Yut7TZI4-22" target="MBT1y_pQEVm0Yut7TZI4-1">
          <mxGeometry width="50" height="50" relative="1" as="geometry">
            <mxPoint x="1829" y="230" as="sourcePoint" />
            <mxPoint x="1899" y="180" as="targetPoint" />
          </mxGeometry>
        </mxCell>
        <mxCell id="MBT1y_pQEVm0Yut7TZI4-38" value="" style="endArrow=classic;html=1;rounded=0;" edge="1" parent="1" source="MBT1y_pQEVm0Yut7TZI4-19" target="MBT1y_pQEVm0Yut7TZI4-1">
          <mxGeometry width="50" height="50" relative="1" as="geometry">
            <mxPoint x="1940" y="230" as="sourcePoint" />
            <mxPoint x="1940" y="180" as="targetPoint" />
          </mxGeometry>
        </mxCell>
        <mxCell id="MBT1y_pQEVm0Yut7TZI4-39" value="" style="endArrow=classic;html=1;rounded=0;" edge="1" parent="1" source="MBT1y_pQEVm0Yut7TZI4-23" target="MBT1y_pQEVm0Yut7TZI4-1">
          <mxGeometry width="50" height="50" relative="1" as="geometry">
            <mxPoint x="2049" y="230" as="sourcePoint" />
            <mxPoint x="1981" y="180" as="targetPoint" />
          </mxGeometry>
        </mxCell>
        <mxCell id="MBT1y_pQEVm0Yut7TZI4-40" value="Settings Update Event" style="rounded=0;whiteSpace=wrap;html=1;" vertex="1" parent="1">
          <mxGeometry x="1718.75" y="440" width="120" height="60" as="geometry" />
        </mxCell>
        <mxCell id="MBT1y_pQEVm0Yut7TZI4-41" value="Game Start Event" style="rounded=0;whiteSpace=wrap;html=1;" vertex="1" parent="1">
          <mxGeometry x="2020" y="560" width="120" height="60" as="geometry" />
        </mxCell>
        <mxCell id="MBT1y_pQEVm0Yut7TZI4-42" value="Game Event" style="rounded=0;whiteSpace=wrap;html=1;" vertex="1" parent="1">
          <mxGeometry x="1871.25" y="440" width="120" height="60" as="geometry" />
        </mxCell>
        <mxCell id="MBT1y_pQEVm0Yut7TZI4-43" value="Game End Event" style="rounded=0;whiteSpace=wrap;html=1;" vertex="1" parent="1">
          <mxGeometry x="1720" y="560" width="120" height="60" as="geometry" />
        </mxCell>
        <mxCell id="MBT1y_pQEVm0Yut7TZI4-44" value="Chat Message Event" style="rounded=0;whiteSpace=wrap;html=1;" vertex="1" parent="1">
          <mxGeometry x="2021.25" y="440" width="120" height="60" as="geometry" />
        </mxCell>
        <mxCell id="MBT1y_pQEVm0Yut7TZI4-46" value="" style="endArrow=classic;html=1;rounded=0;" edge="1" parent="1" source="MBT1y_pQEVm0Yut7TZI4-40" target="MBT1y_pQEVm0Yut7TZI4-22">
          <mxGeometry width="50" height="50" relative="1" as="geometry">
            <mxPoint x="1674" y="480" as="sourcePoint" />
            <mxPoint x="1904" y="290" as="targetPoint" />
          </mxGeometry>
        </mxCell>
        <mxCell id="MBT1y_pQEVm0Yut7TZI4-47" value="" style="endArrow=classic;html=1;rounded=0;" edge="1" parent="1" source="MBT1y_pQEVm0Yut7TZI4-42" target="MBT1y_pQEVm0Yut7TZI4-22">
          <mxGeometry width="50" height="50" relative="1" as="geometry">
            <mxPoint x="1806" y="480" as="sourcePoint" />
            <mxPoint x="1922" y="290" as="targetPoint" />
          </mxGeometry>
        </mxCell>
        <mxCell id="MBT1y_pQEVm0Yut7TZI4-50" value="" style="endArrow=classic;html=1;rounded=0;" edge="1" parent="1" source="RfX00L0ss7I2LWjoT78T-20" target="RfX00L0ss7I2LWjoT78T-12">
          <mxGeometry width="50" height="50" relative="1" as="geometry">
            <mxPoint x="1239" y="410" as="sourcePoint" />
            <mxPoint x="1171" y="360" as="targetPoint" />
          </mxGeometry>
        </mxCell>
        <mxCell id="MBT1y_pQEVm0Yut7TZI4-51" value="" style="endArrow=classic;html=1;rounded=0;" edge="1" parent="1" source="RfX00L0ss7I2LWjoT78T-17" target="RfX00L0ss7I2LWjoT78T-12">
          <mxGeometry width="50" height="50" relative="1" as="geometry">
            <mxPoint x="1130" y="410" as="sourcePoint" />
            <mxPoint x="1130" y="360" as="targetPoint" />
          </mxGeometry>
        </mxCell>
        <mxCell id="MBT1y_pQEVm0Yut7TZI4-52" value="" style="endArrow=classic;html=1;rounded=0;" edge="1" parent="1" source="MBT1y_pQEVm0Yut7TZI4-43" target="MBT1y_pQEVm0Yut7TZI4-42">
          <mxGeometry width="50" height="50" relative="1" as="geometry">
            <mxPoint x="1809" y="450" as="sourcePoint" />
            <mxPoint x="1919" y="290" as="targetPoint" />
          </mxGeometry>
        </mxCell>
        <mxCell id="MBT1y_pQEVm0Yut7TZI4-53" value="" style="endArrow=classic;html=1;rounded=0;" edge="1" parent="1" source="MBT1y_pQEVm0Yut7TZI4-41" target="MBT1y_pQEVm0Yut7TZI4-42">
          <mxGeometry width="50" height="50" relative="1" as="geometry">
            <mxPoint x="1880" y="570" as="sourcePoint" />
            <mxPoint x="1921" y="510" as="targetPoint" />
          </mxGeometry>
        </mxCell>
        <mxCell id="MBT1y_pQEVm0Yut7TZI4-54" value="Board Event" style="rounded=0;whiteSpace=wrap;html=1;" vertex="1" parent="1">
          <mxGeometry x="1868.75" y="560" width="120" height="60" as="geometry" />
        </mxCell>
        <mxCell id="MBT1y_pQEVm0Yut7TZI4-55" value="" style="endArrow=classic;html=1;rounded=0;" edge="1" parent="1" source="MBT1y_pQEVm0Yut7TZI4-54" target="MBT1y_pQEVm0Yut7TZI4-42">
          <mxGeometry width="50" height="50" relative="1" as="geometry">
            <mxPoint x="1828" y="570" as="sourcePoint" />
            <mxPoint x="1903" y="510" as="targetPoint" />
          </mxGeometry>
        </mxCell>
        <mxCell id="MBT1y_pQEVm0Yut7TZI4-57" style="edgeStyle=orthogonalEdgeStyle;rounded=0;orthogonalLoop=1;jettySize=auto;html=1;" edge="1" parent="1" source="MBT1y_pQEVm0Yut7TZI4-56" target="MBT1y_pQEVm0Yut7TZI4-54">
          <mxGeometry relative="1" as="geometry" />
        </mxCell>
        <mxCell id="MBT1y_pQEVm0Yut7TZI4-56" value="Board Update Event" style="rounded=0;whiteSpace=wrap;html=1;" vertex="1" parent="1">
          <mxGeometry x="1868.75" y="660" width="120" height="60" as="geometry" />
        </mxCell>
      </root>
    </mxGraphModel>
  </diagram>
</mxfile>
